<svg width="1600" height="5710" viewBox="0 0 1600 5710" fill="none" xmlns="http://www.w3.org/2000/svg">
<g opacity="0.3">
<mask id="mask0_0_1" style="mask-type:alpha" maskUnits="userSpaceOnUse" x="1377" y="5206" width="11" height="11">
<path d="M1382.23 5216.42C1385.12 5216.42 1387.46 5214.09 1387.46 5211.21C1387.46 5208.33 1385.12 5206 1382.23 5206C1379.34 5206 1377 5208.33 1377 5211.21C1377 5214.09 1379.34 5216.42 1382.23 5216.42Z" fill="url(#paint0_linear_0_1)"/>
</mask>
<g mask="url(#mask0_0_1)">
<path d="M1382.23 5216.42C1385.12 5216.42 1387.46 5214.09 1387.46 5211.21C1387.46 5208.33 1385.12 5206 1382.23 5206C1379.34 5206 1377 5208.33 1377 5211.21C1377 5214.09 1379.34 5216.42 1382.23 5216.42Z" fill="url(#paint1_linear_0_1)"/>
</g>
<mask id="mask1_0_1" style="mask-type:alpha" maskUnits="userSpaceOnUse" x="1407" y="5206" width="11" height="11">
<path d="M1412.51 5216.42C1415.4 5216.42 1417.74 5214.09 1417.74 5211.21C1417.74 5208.33 1415.4 5206 1412.51 5206C1409.62 5206 1407.28 5208.33 1407.28 5211.21C1407.28 5214.09 1409.62 5216.42 1412.51 5216.42Z" fill="url(#paint2_linear_0_1)"/>
</mask>
<g mask="url(#mask1_0_1)">
<path d="M1412.51 5216.42C1415.4 5216.42 1417.74 5214.09 1417.74 5211.21C1417.74 5208.33 1415.4 5206 1412.51 5206C1409.62 5206 1407.28 5208.33 1407.28 5211.21C1407.28 5214.09 1409.62 5216.42 1412.51 5216.42Z" fill="url(#paint3_linear_0_1)"/>
</g>
<mask id="mask2_0_1" style="mask-type:alpha" maskUnits="userSpaceOnUse" x="1437" y="5206" width="12" height="11">
<path d="M1442.79 5216.42C1445.68 5216.42 1448.02 5214.09 1448.02 5211.21C1448.02 5208.33 1445.68 5206 1442.79 5206C1439.9 5206 1437.56 5208.33 1437.56 5211.21C1437.56 5214.09 1439.9 5216.42 1442.79 5216.42Z" fill="url(#paint4_linear_0_1)"/>
</mask>
<g mask="url(#mask2_0_1)">
<path d="M1442.79 5216.42C1445.68 5216.42 1448.02 5214.09 1448.02 5211.21C1448.02 5208.33 1445.68 5206 1442.79 5206C1439.9 5206 1437.56 5208.33 1437.56 5211.21C1437.56 5214.09 1439.9 5216.42 1442.79 5216.42Z" fill="url(#paint5_linear_0_1)"/>
</g>
<mask id="mask3_0_1" style="mask-type:alpha" maskUnits="userSpaceOnUse" x="1467" y="5206" width="12" height="11">
<path d="M1473.07 5216.42C1475.96 5216.42 1478.3 5214.09 1478.3 5211.21C1478.3 5208.33 1475.96 5206 1473.07 5206C1470.18 5206 1467.84 5208.33 1467.84 5211.21C1467.84 5214.09 1470.18 5216.42 1473.07 5216.42Z" fill="url(#paint6_linear_0_1)"/>
</mask>
<g mask="url(#mask3_0_1)">
<path d="M1473.07 5216.42C1475.96 5216.42 1478.3 5214.09 1478.3 5211.21C1478.3 5208.33 1475.96 5206 1473.07 5206C1470.18 5206 1467.84 5208.33 1467.84 5211.21C1467.84 5214.09 1470.18 5216.42 1473.07 5216.42Z" fill="url(#paint7_linear_0_1)"/>
</g>
<mask id="mask4_0_1" style="mask-type:alpha" maskUnits="userSpaceOnUse" x="1498" y="5206" width="11" height="11">
<path d="M1503.35 5216.42C1506.24 5216.42 1508.58 5214.09 1508.58 5211.21C1508.58 5208.33 1506.24 5206 1503.35 5206C1500.47 5206 1498.12 5208.33 1498.12 5211.21C1498.12 5214.09 1500.47 5216.42 1503.35 5216.42Z" fill="url(#paint8_linear_0_1)"/>
</mask>
<g mask="url(#mask4_0_1)">
<path d="M1503.35 5216.42C1506.24 5216.42 1508.58 5214.09 1508.58 5211.21C1508.58 5208.33 1506.24 5206 1503.35 5206C1500.47 5206 1498.12 5208.33 1498.12 5211.21C1498.12 5214.09 1500.47 5216.42 1503.35 5216.42Z" fill="url(#paint9_linear_0_1)"/>
</g>
<mask id="mask5_0_1" style="mask-type:alpha" maskUnits="userSpaceOnUse" x="1377" y="5232" width="11" height="11">
<path d="M1382.23 5242.6C1385.12 5242.6 1387.46 5240.26 1387.46 5237.38C1387.46 5234.5 1385.12 5232.17 1382.23 5232.17C1379.34 5232.17 1377 5234.5 1377 5237.38C1377 5240.26 1379.34 5242.6 1382.23 5242.6Z" fill="url(#paint10_linear_0_1)"/>
</mask>
<g mask="url(#mask5_0_1)">
<path d="M1382.23 5242.6C1385.12 5242.6 1387.46 5240.26 1387.46 5237.38C1387.46 5234.5 1385.12 5232.17 1382.23 5232.17C1379.34 5232.17 1377 5234.5 1377 5237.38C1377 5240.26 1379.34 5242.6 1382.23 5242.6Z" fill="url(#paint11_linear_0_1)"/>
</g>
<mask id="mask6_0_1" style="mask-type:alpha" maskUnits="userSpaceOnUse" x="1407" y="5232" width="11" height="11">
<path d="M1412.51 5242.6C1415.4 5242.6 1417.74 5240.26 1417.74 5237.38C1417.74 5234.5 1415.4 5232.17 1412.51 5232.17C1409.62 5232.17 1407.28 5234.5 1407.28 5237.38C1407.28 5240.26 1409.62 5242.6 1412.51 5242.6Z" fill="url(#paint12_linear_0_1)"/>
</mask>
<g mask="url(#mask6_0_1)">
<path d="M1412.51 5242.6C1415.4 5242.6 1417.74 5240.26 1417.74 5237.38C1417.74 5234.5 1415.4 5232.17 1412.51 5232.17C1409.62 5232.17 1407.28 5234.5 1407.28 5237.38C1407.28 5240.26 1409.62 5242.6 1412.51 5242.6Z" fill="url(#paint13_linear_0_1)"/>
</g>
<mask id="mask7_0_1" style="mask-type:alpha" maskUnits="userSpaceOnUse" x="1437" y="5232" width="12" height="11">
<path d="M1442.79 5242.6C1445.68 5242.6 1448.02 5240.26 1448.02 5237.38C1448.02 5234.5 1445.68 5232.17 1442.79 5232.17C1439.9 5232.17 1437.56 5234.5 1437.56 5237.38C1437.56 5240.26 1439.9 5242.6 1442.79 5242.6Z" fill="url(#paint14_linear_0_1)"/>
</mask>
<g mask="url(#mask7_0_1)">
<path d="M1442.79 5242.6C1445.68 5242.6 1448.02 5240.26 1448.02 5237.38C1448.02 5234.5 1445.68 5232.17 1442.79 5232.17C1439.9 5232.17 1437.56 5234.5 1437.56 5237.38C1437.56 5240.26 1439.9 5242.6 1442.79 5242.6Z" fill="url(#paint15_linear_0_1)"/>
</g>
<mask id="mask8_0_1" style="mask-type:alpha" maskUnits="userSpaceOnUse" x="1467" y="5232" width="12" height="11">
<path d="M1473.07 5242.6C1475.96 5242.6 1478.3 5240.26 1478.3 5237.38C1478.3 5234.5 1475.96 5232.17 1473.07 5232.17C1470.18 5232.17 1467.84 5234.5 1467.84 5237.38C1467.84 5240.26 1470.18 5242.6 1473.07 5242.6Z" fill="url(#paint16_linear_0_1)"/>
</mask>
<g mask="url(#mask8_0_1)">
<path d="M1473.07 5242.6C1475.96 5242.6 1478.3 5240.26 1478.3 5237.38C1478.3 5234.5 1475.96 5232.17 1473.07 5232.17C1470.18 5232.17 1467.84 5234.5 1467.84 5237.38C1467.84 5240.26 1470.18 5242.6 1473.07 5242.6Z" fill="url(#paint17_linear_0_1)"/>
</g>
<mask id="mask9_0_1" style="mask-type:alpha" maskUnits="userSpaceOnUse" x="1498" y="5232" width="11" height="11">
<path d="M1503.35 5242.6C1506.24 5242.6 1508.58 5240.26 1508.58 5237.38C1508.58 5234.5 1506.24 5232.17 1503.35 5232.17C1500.47 5232.17 1498.12 5234.5 1498.12 5237.38C1498.12 5240.26 1500.47 5242.6 1503.35 5242.6Z" fill="url(#paint18_linear_0_1)"/>
</mask>
<g mask="url(#mask9_0_1)">
<path d="M1503.35 5242.6C1506.24 5242.6 1508.58 5240.26 1508.58 5237.38C1508.58 5234.5 1506.24 5232.17 1503.35 5232.17C1500.47 5232.17 1498.12 5234.5 1498.12 5237.38C1498.12 5240.26 1500.47 5242.6 1503.35 5242.6Z" fill="url(#paint19_linear_0_1)"/>
</g>
<mask id="mask10_0_1" style="mask-type:alpha" maskUnits="userSpaceOnUse" x="1377" y="5258" width="11" height="11">
<path d="M1382.23 5268.71C1385.12 5268.71 1387.46 5266.38 1387.46 5263.5C1387.46 5260.62 1385.12 5258.29 1382.23 5258.29C1379.34 5258.29 1377 5260.62 1377 5263.5C1377 5266.38 1379.34 5268.71 1382.23 5268.71Z" fill="url(#paint20_linear_0_1)"/>
</mask>
<g mask="url(#mask10_0_1)">
<path d="M1382.23 5268.71C1385.12 5268.71 1387.46 5266.38 1387.46 5263.5C1387.46 5260.62 1385.12 5258.29 1382.23 5258.29C1379.34 5258.29 1377 5260.62 1377 5263.5C1377 5266.38 1379.34 5268.71 1382.23 5268.71Z" fill="url(#paint21_linear_0_1)"/>
</g>
<mask id="mask11_0_1" style="mask-type:alpha" maskUnits="userSpaceOnUse" x="1407" y="5258" width="11" height="11">
<path d="M1412.51 5268.71C1415.4 5268.71 1417.74 5266.38 1417.74 5263.5C1417.74 5260.62 1415.4 5258.29 1412.51 5258.29C1409.62 5258.29 1407.28 5260.62 1407.28 5263.5C1407.28 5266.38 1409.62 5268.71 1412.51 5268.71Z" fill="url(#paint22_linear_0_1)"/>
</mask>
<g mask="url(#mask11_0_1)">
<path d="M1412.51 5268.71C1415.4 5268.71 1417.74 5266.38 1417.74 5263.5C1417.74 5260.62 1415.4 5258.29 1412.51 5258.29C1409.62 5258.29 1407.28 5260.62 1407.28 5263.5C1407.28 5266.38 1409.62 5268.71 1412.51 5268.71Z" fill="url(#paint23_linear_0_1)"/>
</g>
<mask id="mask12_0_1" style="mask-type:alpha" maskUnits="userSpaceOnUse" x="1437" y="5258" width="12" height="11">
<path d="M1442.79 5268.71C1445.68 5268.71 1448.02 5266.38 1448.02 5263.5C1448.02 5260.62 1445.68 5258.29 1442.79 5258.29C1439.9 5258.29 1437.56 5260.62 1437.56 5263.5C1437.56 5266.38 1439.9 5268.71 1442.79 5268.71Z" fill="url(#paint24_linear_0_1)"/>
</mask>
<g mask="url(#mask12_0_1)">
<path d="M1442.79 5268.71C1445.68 5268.71 1448.02 5266.38 1448.02 5263.5C1448.02 5260.62 1445.68 5258.29 1442.79 5258.29C1439.9 5258.29 1437.56 5260.62 1437.56 5263.5C1437.56 5266.38 1439.9 5268.71 1442.79 5268.71Z" fill="url(#paint25_linear_0_1)"/>
</g>
<mask id="mask13_0_1" style="mask-type:alpha" maskUnits="userSpaceOnUse" x="1467" y="5258" width="12" height="11">
<path d="M1473.07 5268.71C1475.96 5268.71 1478.3 5266.38 1478.3 5263.5C1478.3 5260.62 1475.96 5258.29 1473.07 5258.29C1470.18 5258.29 1467.84 5260.62 1467.84 5263.5C1467.84 5266.38 1470.18 5268.71 1473.07 5268.71Z" fill="url(#paint26_linear_0_1)"/>
</mask>
<g mask="url(#mask13_0_1)">
<path d="M1473.07 5268.71C1475.96 5268.71 1478.3 5266.38 1478.3 5263.5C1478.3 5260.62 1475.96 5258.29 1473.07 5258.29C1470.18 5258.29 1467.84 5260.62 1467.84 5263.5C1467.84 5266.38 1470.18 5268.71 1473.07 5268.71Z" fill="url(#paint27_linear_0_1)"/>
</g>
<mask id="mask14_0_1" style="mask-type:alpha" maskUnits="userSpaceOnUse" x="1498" y="5258" width="11" height="11">
<path d="M1503.35 5268.71C1506.24 5268.71 1508.58 5266.38 1508.58 5263.5C1508.58 5260.62 1506.24 5258.29 1503.35 5258.29C1500.47 5258.29 1498.12 5260.62 1498.12 5263.5C1498.12 5266.38 1500.47 5268.71 1503.35 5268.71Z" fill="url(#paint28_linear_0_1)"/>
</mask>
<g mask="url(#mask14_0_1)">
<path d="M1503.35 5268.71C1506.24 5268.71 1508.58 5266.38 1508.58 5263.5C1508.58 5260.62 1506.24 5258.29 1503.35 5258.29C1500.47 5258.29 1498.12 5260.62 1498.12 5263.5C1498.12 5266.38 1500.47 5268.71 1503.35 5268.71Z" fill="url(#paint29_linear_0_1)"/>
</g>
<mask id="mask15_0_1" style="mask-type:alpha" maskUnits="userSpaceOnUse" x="1377" y="5284" width="11" height="11">
<path d="M1382.23 5294.88C1385.12 5294.88 1387.46 5292.55 1387.46 5289.67C1387.46 5286.79 1385.12 5284.46 1382.23 5284.46C1379.34 5284.46 1377 5286.79 1377 5289.67C1377 5292.55 1379.34 5294.88 1382.23 5294.88Z" fill="url(#paint30_linear_0_1)"/>
</mask>
<g mask="url(#mask15_0_1)">
<path d="M1382.23 5294.88C1385.12 5294.88 1387.46 5292.55 1387.46 5289.67C1387.46 5286.79 1385.12 5284.46 1382.23 5284.46C1379.34 5284.46 1377 5286.79 1377 5289.67C1377 5292.55 1379.34 5294.88 1382.23 5294.88Z" fill="url(#paint31_linear_0_1)"/>
</g>
<mask id="mask16_0_1" style="mask-type:alpha" maskUnits="userSpaceOnUse" x="1407" y="5284" width="11" height="11">
<path d="M1412.51 5294.88C1415.4 5294.88 1417.74 5292.55 1417.74 5289.67C1417.74 5286.79 1415.4 5284.46 1412.51 5284.46C1409.62 5284.46 1407.28 5286.79 1407.28 5289.67C1407.28 5292.55 1409.62 5294.88 1412.51 5294.88Z" fill="url(#paint32_linear_0_1)"/>
</mask>
<g mask="url(#mask16_0_1)">
<path d="M1412.51 5294.88C1415.4 5294.88 1417.74 5292.55 1417.74 5289.67C1417.74 5286.79 1415.4 5284.46 1412.51 5284.46C1409.62 5284.46 1407.28 5286.79 1407.28 5289.67C1407.28 5292.55 1409.62 5294.88 1412.51 5294.88Z" fill="url(#paint33_linear_0_1)"/>
</g>
<mask id="mask17_0_1" style="mask-type:alpha" maskUnits="userSpaceOnUse" x="1437" y="5284" width="12" height="11">
<path d="M1442.79 5294.88C1445.68 5294.88 1448.02 5292.55 1448.02 5289.67C1448.02 5286.79 1445.68 5284.46 1442.79 5284.46C1439.9 5284.46 1437.56 5286.79 1437.56 5289.67C1437.56 5292.55 1439.9 5294.88 1442.79 5294.88Z" fill="url(#paint34_linear_0_1)"/>
</mask>
<g mask="url(#mask17_0_1)">
<path d="M1442.79 5294.88C1445.68 5294.88 1448.02 5292.55 1448.02 5289.67C1448.02 5286.79 1445.68 5284.46 1442.79 5284.46C1439.9 5284.46 1437.56 5286.79 1437.56 5289.67C1437.56 5292.55 1439.9 5294.88 1442.79 5294.88Z" fill="url(#paint35_linear_0_1)"/>
</g>
<mask id="mask18_0_1" style="mask-type:alpha" maskUnits="userSpaceOnUse" x="1467" y="5284" width="12" height="11">
<path d="M1473.07 5294.88C1475.96 5294.88 1478.3 5292.55 1478.3 5289.67C1478.3 5286.79 1475.96 5284.46 1473.07 5284.46C1470.18 5284.46 1467.84 5286.79 1467.84 5289.67C1467.84 5292.55 1470.18 5294.88 1473.07 5294.88Z" fill="url(#paint36_linear_0_1)"/>
</mask>
<g mask="url(#mask18_0_1)">
<path d="M1473.07 5294.88C1475.96 5294.88 1478.3 5292.55 1478.3 5289.67C1478.3 5286.79 1475.96 5284.46 1473.07 5284.46C1470.18 5284.46 1467.84 5286.79 1467.84 5289.67C1467.84 5292.55 1470.18 5294.88 1473.07 5294.88Z" fill="url(#paint37_linear_0_1)"/>
</g>
<mask id="mask19_0_1" style="mask-type:alpha" maskUnits="userSpaceOnUse" x="1498" y="5284" width="11" height="11">
<path d="M1503.35 5294.88C1506.24 5294.88 1508.58 5292.55 1508.58 5289.67C1508.58 5286.79 1506.24 5284.46 1503.35 5284.46C1500.47 5284.46 1498.12 5286.79 1498.12 5289.67C1498.12 5292.55 1500.47 5294.88 1503.35 5294.88Z" fill="url(#paint38_linear_0_1)"/>
</mask>
<g mask="url(#mask19_0_1)">
<path d="M1503.35 5294.88C1506.24 5294.88 1508.58 5292.55 1508.58 5289.67C1508.58 5286.79 1506.24 5284.46 1503.35 5284.46C1500.47 5284.46 1498.12 5286.79 1498.12 5289.67C1498.12 5292.55 1500.47 5294.88 1503.35 5294.88Z" fill="url(#paint39_linear_0_1)"/>
</g>
<mask id="mask20_0_1" style="mask-type:alpha" maskUnits="userSpaceOnUse" x="1377" y="5310" width="11" height="11">
<path d="M1382.23 5321C1385.12 5321 1387.46 5318.67 1387.46 5315.79C1387.46 5312.91 1385.12 5310.58 1382.23 5310.58C1379.34 5310.58 1377 5312.91 1377 5315.79C1377 5318.67 1379.34 5321 1382.23 5321Z" fill="url(#paint40_linear_0_1)"/>
</mask>
<g mask="url(#mask20_0_1)">
<path d="M1382.23 5321C1385.12 5321 1387.46 5318.67 1387.46 5315.79C1387.46 5312.91 1385.12 5310.58 1382.23 5310.58C1379.34 5310.58 1377 5312.91 1377 5315.79C1377 5318.67 1379.34 5321 1382.23 5321Z" fill="url(#paint41_linear_0_1)"/>
</g>
<mask id="mask21_0_1" style="mask-type:alpha" maskUnits="userSpaceOnUse" x="1407" y="5310" width="11" height="11">
<path d="M1412.51 5321C1415.4 5321 1417.74 5318.67 1417.74 5315.79C1417.74 5312.91 1415.4 5310.58 1412.51 5310.58C1409.62 5310.58 1407.28 5312.91 1407.28 5315.79C1407.28 5318.67 1409.62 5321 1412.51 5321Z" fill="url(#paint42_linear_0_1)"/>
</mask>
<g mask="url(#mask21_0_1)">
<path d="M1412.51 5321C1415.4 5321 1417.74 5318.67 1417.74 5315.79C1417.74 5312.91 1415.4 5310.58 1412.51 5310.58C1409.62 5310.58 1407.28 5312.91 1407.28 5315.79C1407.28 5318.67 1409.62 5321 1412.51 5321Z" fill="url(#paint43_linear_0_1)"/>
</g>
<mask id="mask22_0_1" style="mask-type:alpha" maskUnits="userSpaceOnUse" x="1437" y="5310" width="12" height="11">
<path d="M1442.79 5321C1445.68 5321 1448.02 5318.67 1448.02 5315.79C1448.02 5312.91 1445.68 5310.58 1442.79 5310.58C1439.9 5310.58 1437.56 5312.91 1437.56 5315.79C1437.56 5318.67 1439.9 5321 1442.79 5321Z" fill="url(#paint44_linear_0_1)"/>
</mask>
<g mask="url(#mask22_0_1)">
<path d="M1442.79 5321C1445.68 5321 1448.02 5318.67 1448.02 5315.79C1448.02 5312.91 1445.68 5310.58 1442.79 5310.58C1439.9 5310.58 1437.56 5312.91 1437.56 5315.79C1437.56 5318.67 1439.9 5321 1442.79 5321Z" fill="url(#paint45_linear_0_1)"/>
</g>
<mask id="mask23_0_1" style="mask-type:alpha" maskUnits="userSpaceOnUse" x="1467" y="5310" width="12" height="11">
<path d="M1473.07 5321C1475.96 5321 1478.3 5318.67 1478.3 5315.79C1478.3 5312.91 1475.96 5310.58 1473.07 5310.58C1470.18 5310.58 1467.84 5312.91 1467.84 5315.79C1467.84 5318.67 1470.18 5321 1473.07 5321Z" fill="url(#paint46_linear_0_1)"/>
</mask>
<g mask="url(#mask23_0_1)">
<path d="M1473.07 5321C1475.96 5321 1478.3 5318.67 1478.3 5315.79C1478.3 5312.91 1475.96 5310.58 1473.07 5310.58C1470.18 5310.58 1467.84 5312.91 1467.84 5315.79C1467.84 5318.67 1470.18 5321 1473.07 5321Z" fill="url(#paint47_linear_0_1)"/>
</g>
<mask id="mask24_0_1" style="mask-type:alpha" maskUnits="userSpaceOnUse" x="1498" y="5310" width="11" height="11">
<path d="M1503.35 5321C1506.24 5321 1508.58 5318.67 1508.58 5315.79C1508.58 5312.91 1506.24 5310.58 1503.35 5310.58C1500.47 5310.58 1498.12 5312.91 1498.12 5315.79C1498.12 5318.67 1500.47 5321 1503.35 5321Z" fill="url(#paint48_linear_0_1)"/>
</mask>
<g mask="url(#mask24_0_1)">
<path d="M1503.35 5321C1506.24 5321 1508.58 5318.67 1508.58 5315.79C1508.58 5312.91 1506.24 5310.58 1503.35 5310.58C1500.47 5310.58 1498.12 5312.91 1498.12 5315.79C1498.12 5318.67 1500.47 5321 1503.35 5321Z" fill="url(#paint49_linear_0_1)"/>
</g>
</g>
<g opacity="0.26">
<mask id="mask25_0_1" style="mask-type:alpha" maskUnits="userSpaceOnUse" x="11" y="5614" width="11" height="11">
<path d="M16.5095 5624.42C19.397 5624.42 21.7378 5622.09 21.7378 5619.21C21.7378 5616.33 19.397 5614 16.5095 5614C13.6219 5614 11.2811 5616.33 11.2811 5619.21C11.2811 5622.09 13.6219 5624.42 16.5095 5624.42Z" fill="url(#paint50_linear_0_1)"/>
</mask>
<g mask="url(#mask25_0_1)">
<path d="M16.5095 5624.42C19.397 5624.42 21.7378 5622.09 21.7378 5619.21C21.7378 5616.33 19.397 5614 16.5095 5614C13.6219 5614 11.2811 5616.33 11.2811 5619.21C11.2811 5622.09 13.6219 5624.42 16.5095 5624.42Z" fill="url(#paint51_linear_0_1)"/>
</g>
<mask id="mask26_0_1" style="mask-type:alpha" maskUnits="userSpaceOnUse" x="41" y="5614" width="12" height="11">
<path d="M46.7905 5624.42C49.6781 5624.42 52.0189 5622.09 52.0189 5619.21C52.0189 5616.33 49.6781 5614 46.7905 5614C43.903 5614 41.5621 5616.33 41.5621 5619.21C41.5621 5622.09 43.903 5624.42 46.7905 5624.42Z" fill="url(#paint52_linear_0_1)"/>
</mask>
<g mask="url(#mask26_0_1)">
<path d="M46.7905 5624.42C49.6781 5624.42 52.0189 5622.09 52.0189 5619.21C52.0189 5616.33 49.6781 5614 46.7905 5614C43.903 5614 41.5621 5616.33 41.5621 5619.21C41.5621 5622.09 43.903 5624.42 46.7905 5624.42Z" fill="url(#paint53_linear_0_1)"/>
</g>
<mask id="mask27_0_1" style="mask-type:alpha" maskUnits="userSpaceOnUse" x="71" y="5614" width="12" height="11">
<path d="M77.0716 5624.42C79.9592 5624.42 82.3 5622.09 82.3 5619.21C82.3 5616.33 79.9592 5614 77.0716 5614C74.184 5614 71.8432 5616.33 71.8432 5619.21C71.8432 5622.09 74.184 5624.42 77.0716 5624.42Z" fill="url(#paint54_linear_0_1)"/>
</mask>
<g mask="url(#mask27_0_1)">
<path d="M77.0716 5624.42C79.9592 5624.42 82.3 5622.09 82.3 5619.21C82.3 5616.33 79.9592 5614 77.0716 5614C74.184 5614 71.8432 5616.33 71.8432 5619.21C71.8432 5622.09 74.184 5624.42 77.0716 5624.42Z" fill="url(#paint55_linear_0_1)"/>
</g>
<mask id="mask28_0_1" style="mask-type:alpha" maskUnits="userSpaceOnUse" x="102" y="5614" width="11" height="11">
<path d="M107.353 5624.42C110.24 5624.42 112.581 5622.09 112.581 5619.21C112.581 5616.33 110.24 5614 107.353 5614C104.465 5614 102.124 5616.33 102.124 5619.21C102.124 5622.09 104.465 5624.42 107.353 5624.42Z" fill="url(#paint56_linear_0_1)"/>
</mask>
<g mask="url(#mask28_0_1)">
<path d="M107.353 5624.42C110.24 5624.42 112.581 5622.09 112.581 5619.21C112.581 5616.33 110.24 5614 107.353 5614C104.465 5614 102.124 5616.33 102.124 5619.21C102.124 5622.09 104.465 5624.42 107.353 5624.42Z" fill="url(#paint57_linear_0_1)"/>
</g>
<mask id="mask29_0_1" style="mask-type:alpha" maskUnits="userSpaceOnUse" x="11" y="5640" width="11" height="11">
<path d="M16.5095 5650.6C19.397 5650.6 21.7378 5648.26 21.7378 5645.38C21.7378 5642.5 19.397 5640.17 16.5095 5640.17C13.6219 5640.17 11.2811 5642.5 11.2811 5645.38C11.2811 5648.26 13.6219 5650.6 16.5095 5650.6Z" fill="url(#paint58_linear_0_1)"/>
</mask>
<g mask="url(#mask29_0_1)">
<path d="M16.5095 5650.6C19.397 5650.6 21.7378 5648.26 21.7378 5645.38C21.7378 5642.5 19.397 5640.17 16.5095 5640.17C13.6219 5640.17 11.2811 5642.5 11.2811 5645.38C11.2811 5648.26 13.6219 5650.6 16.5095 5650.6Z" fill="url(#paint59_linear_0_1)"/>
</g>
<mask id="mask30_0_1" style="mask-type:alpha" maskUnits="userSpaceOnUse" x="41" y="5640" width="12" height="11">
<path d="M46.7905 5650.6C49.6781 5650.6 52.0189 5648.26 52.0189 5645.38C52.0189 5642.5 49.6781 5640.17 46.7905 5640.17C43.903 5640.17 41.5621 5642.5 41.5621 5645.38C41.5621 5648.26 43.903 5650.6 46.7905 5650.6Z" fill="url(#paint60_linear_0_1)"/>
</mask>
<g mask="url(#mask30_0_1)">
<path d="M46.7905 5650.6C49.6781 5650.6 52.0189 5648.26 52.0189 5645.38C52.0189 5642.5 49.6781 5640.17 46.7905 5640.17C43.903 5640.17 41.5621 5642.5 41.5621 5645.38C41.5621 5648.26 43.903 5650.6 46.7905 5650.6Z" fill="url(#paint61_linear_0_1)"/>
</g>
<mask id="mask31_0_1" style="mask-type:alpha" maskUnits="userSpaceOnUse" x="71" y="5640" width="12" height="11">
<path d="M77.0716 5650.6C79.9592 5650.6 82.3 5648.26 82.3 5645.38C82.3 5642.5 79.9592 5640.17 77.0716 5640.17C74.184 5640.17 71.8432 5642.5 71.8432 5645.38C71.8432 5648.26 74.184 5650.6 77.0716 5650.6Z" fill="url(#paint62_linear_0_1)"/>
</mask>
<g mask="url(#mask31_0_1)">
<path d="M77.0716 5650.6C79.9592 5650.6 82.3 5648.26 82.3 5645.38C82.3 5642.5 79.9592 5640.17 77.0716 5640.17C74.184 5640.17 71.8432 5642.5 71.8432 5645.38C71.8432 5648.26 74.184 5650.6 77.0716 5650.6Z" fill="url(#paint63_linear_0_1)"/>
</g>
<mask id="mask32_0_1" style="mask-type:alpha" maskUnits="userSpaceOnUse" x="102" y="5640" width="11" height="11">
<path d="M107.353 5650.6C110.24 5650.6 112.581 5648.26 112.581 5645.38C112.581 5642.5 110.24 5640.17 107.353 5640.17C104.465 5640.17 102.124 5642.5 102.124 5645.38C102.124 5648.26 104.465 5650.6 107.353 5650.6Z" fill="url(#paint64_linear_0_1)"/>
</mask>
<g mask="url(#mask32_0_1)">
<path d="M107.353 5650.6C110.24 5650.6 112.581 5648.26 112.581 5645.38C112.581 5642.5 110.24 5640.17 107.353 5640.17C104.465 5640.17 102.124 5642.5 102.124 5645.38C102.124 5648.26 104.465 5650.6 107.353 5650.6Z" fill="url(#paint65_linear_0_1)"/>
</g>
<mask id="mask33_0_1" style="mask-type:alpha" maskUnits="userSpaceOnUse" x="11" y="5666" width="11" height="11">
<path d="M16.5095 5676.71C19.397 5676.71 21.7378 5674.38 21.7378 5671.5C21.7378 5668.62 19.397 5666.29 16.5095 5666.29C13.6219 5666.29 11.2811 5668.62 11.2811 5671.5C11.2811 5674.38 13.6219 5676.71 16.5095 5676.71Z" fill="url(#paint66_linear_0_1)"/>
</mask>
<g mask="url(#mask33_0_1)">
<path d="M16.5095 5676.71C19.397 5676.71 21.7378 5674.38 21.7378 5671.5C21.7378 5668.62 19.397 5666.29 16.5095 5666.29C13.6219 5666.29 11.2811 5668.62 11.2811 5671.5C11.2811 5674.38 13.6219 5676.71 16.5095 5676.71Z" fill="url(#paint67_linear_0_1)"/>
</g>
<mask id="mask34_0_1" style="mask-type:alpha" maskUnits="userSpaceOnUse" x="41" y="5666" width="12" height="11">
<path d="M46.7905 5676.71C49.6781 5676.71 52.0189 5674.38 52.0189 5671.5C52.0189 5668.62 49.6781 5666.29 46.7905 5666.29C43.903 5666.29 41.5621 5668.62 41.5621 5671.5C41.5621 5674.38 43.903 5676.71 46.7905 5676.71Z" fill="url(#paint68_linear_0_1)"/>
</mask>
<g mask="url(#mask34_0_1)">
<path d="M46.7905 5676.71C49.6781 5676.71 52.0189 5674.38 52.0189 5671.5C52.0189 5668.62 49.6781 5666.29 46.7905 5666.29C43.903 5666.29 41.5621 5668.62 41.5621 5671.5C41.5621 5674.38 43.903 5676.71 46.7905 5676.71Z" fill="url(#paint69_linear_0_1)"/>
</g>
<mask id="mask35_0_1" style="mask-type:alpha" maskUnits="userSpaceOnUse" x="71" y="5666" width="12" height="11">
<path d="M77.0716 5676.71C79.9592 5676.71 82.3 5674.38 82.3 5671.5C82.3 5668.62 79.9592 5666.29 77.0716 5666.29C74.184 5666.29 71.8432 5668.62 71.8432 5671.5C71.8432 5674.38 74.184 5676.71 77.0716 5676.71Z" fill="url(#paint70_linear_0_1)"/>
</mask>
<g mask="url(#mask35_0_1)">
<path d="M77.0716 5676.71C79.9592 5676.71 82.3 5674.38 82.3 5671.5C82.3 5668.62 79.9592 5666.29 77.0716 5666.29C74.184 5666.29 71.8432 5668.62 71.8432 5671.5C71.8432 5674.38 74.184 5676.71 77.0716 5676.71Z" fill="url(#paint71_linear_0_1)"/>
</g>
<mask id="mask36_0_1" style="mask-type:alpha" maskUnits="userSpaceOnUse" x="102" y="5666" width="11" height="11">
<path d="M107.353 5676.71C110.24 5676.71 112.581 5674.38 112.581 5671.5C112.581 5668.62 110.24 5666.29 107.353 5666.29C104.465 5666.29 102.124 5668.62 102.124 5671.5C102.124 5674.38 104.465 5676.71 107.353 5676.71Z" fill="url(#paint72_linear_0_1)"/>
</mask>
<g mask="url(#mask36_0_1)">
<path d="M107.353 5676.71C110.24 5676.71 112.581 5674.38 112.581 5671.5C112.581 5668.62 110.24 5666.29 107.353 5666.29C104.465 5666.29 102.124 5668.62 102.124 5671.5C102.124 5674.38 104.465 5676.71 107.353 5676.71Z" fill="url(#paint73_linear_0_1)"/>
</g>
<mask id="mask37_0_1" style="mask-type:alpha" maskUnits="userSpaceOnUse" x="11" y="5692" width="11" height="11">
<path d="M16.5095 5702.88C19.397 5702.88 21.7378 5700.55 21.7378 5697.67C21.7378 5694.79 19.397 5692.46 16.5095 5692.46C13.6219 5692.46 11.2811 5694.79 11.2811 5697.67C11.2811 5700.55 13.6219 5702.88 16.5095 5702.88Z" fill="url(#paint74_linear_0_1)"/>
</mask>
<g mask="url(#mask37_0_1)">
<path d="M16.5095 5702.88C19.397 5702.88 21.7378 5700.55 21.7378 5697.67C21.7378 5694.79 19.397 5692.46 16.5095 5692.46C13.6219 5692.46 11.2811 5694.79 11.2811 5697.67C11.2811 5700.55 13.6219 5702.88 16.5095 5702.88Z" fill="url(#paint75_linear_0_1)"/>
</g>
<mask id="mask38_0_1" style="mask-type:alpha" maskUnits="userSpaceOnUse" x="41" y="5692" width="12" height="11">
<path d="M46.7905 5702.88C49.6781 5702.88 52.0189 5700.55 52.0189 5697.67C52.0189 5694.79 49.6781 5692.46 46.7905 5692.46C43.903 5692.46 41.5621 5694.79 41.5621 5697.67C41.5621 5700.55 43.903 5702.88 46.7905 5702.88Z" fill="url(#paint76_linear_0_1)"/>
</mask>
<g mask="url(#mask38_0_1)">
<path d="M46.7905 5702.88C49.6781 5702.88 52.0189 5700.55 52.0189 5697.67C52.0189 5694.79 49.6781 5692.46 46.7905 5692.46C43.903 5692.46 41.5621 5694.79 41.5621 5697.67C41.5621 5700.55 43.903 5702.88 46.7905 5702.88Z" fill="url(#paint77_linear_0_1)"/>
</g>
<mask id="mask39_0_1" style="mask-type:alpha" maskUnits="userSpaceOnUse" x="71" y="5692" width="12" height="11">
<path d="M77.0716 5702.88C79.9592 5702.88 82.3 5700.55 82.3 5697.67C82.3 5694.79 79.9592 5692.46 77.0716 5692.46C74.184 5692.46 71.8432 5694.79 71.8432 5697.67C71.8432 5700.55 74.184 5702.88 77.0716 5702.88Z" fill="url(#paint78_linear_0_1)"/>
</mask>
<g mask="url(#mask39_0_1)">
<path d="M77.0716 5702.88C79.9592 5702.88 82.3 5700.55 82.3 5697.67C82.3 5694.79 79.9592 5692.46 77.0716 5692.46C74.184 5692.46 71.8432 5694.79 71.8432 5697.67C71.8432 5700.55 74.184 5702.88 77.0716 5702.88Z" fill="url(#paint79_linear_0_1)"/>
</g>
<mask id="mask40_0_1" style="mask-type:alpha" maskUnits="userSpaceOnUse" x="102" y="5692" width="11" height="11">
<path d="M107.353 5702.88C110.24 5702.88 112.581 5700.55 112.581 5697.67C112.581 5694.79 110.24 5692.46 107.353 5692.46C104.465 5692.46 102.124 5694.79 102.124 5697.67C102.124 5700.55 104.465 5702.88 107.353 5702.88Z" fill="url(#paint80_linear_0_1)"/>
</mask>
<g mask="url(#mask40_0_1)">
<path d="M107.353 5702.88C110.24 5702.88 112.581 5700.55 112.581 5697.67C112.581 5694.79 110.24 5692.46 107.353 5692.46C104.465 5692.46 102.124 5694.79 102.124 5697.67C102.124 5700.55 104.465 5702.88 107.353 5702.88Z" fill="url(#paint81_linear_0_1)"/>
</g>
</g>
<path d="M1889 4760.36C1839.38 4820.03 1737.06 4746.62 1592.04 4783.05C1466.44 4814.61 1460.9 4891.02 1359.94 4889.53C1286.18 4888.45 1204.91 4847.72 1159.1 4774.59C1108.57 4693.95 1124.38 4610.33 1128.88 4590.02C1149 4498.95 1213.73 4449.67 1236.57 4432.83C1330.7 4363.47 1438.3 4372.81 1489.93 4377.26C1683.83 4394.06 1894.04 4527.46 1906.67 4677.39C1908.34 4697.02 1911.39 4733.42 1889 4760.36Z" fill="url(#paint82_linear_0_1)"/>
<g opacity="0.6" clip-path="url(#clip0_0_1)">
<path d="M-154.953 1161.27C-93.577 1090.78 27.6289 1181.97 203.25 1142.06C355.359 1107.48 364.11 1015.62 485.642 1020.18C574.431 1023.49 671.183 1074.76 724.356 1164.07C782.997 1262.55 761.68 1362.81 755.696 1387.14C728.983 1496.26 649.698 1553.83 621.728 1573.49C506.488 1654.44 377.173 1640.25 315.136 1633.48C82.0999 1607.96 -167.386 1441.58 -178.495 1260.7C-179.971 1237.02 -182.658 1193.1 -154.953 1161.27Z" fill="url(#paint83_linear_0_1)"/>
</g>
<g opacity="0.3">
<mask id="mask41_0_1" style="mask-type:alpha" maskUnits="userSpaceOnUse" x="10" y="0" width="12" height="11">
<path d="M15.7905 10.425C18.6781 10.425 21.0189 8.09121 21.0189 5.21245C21.0189 2.33368 18.6781 0 15.7905 0C12.903 0 10.5621 2.33368 10.5621 5.21245C10.5621 8.09121 12.903 10.425 15.7905 10.425Z" fill="url(#paint84_linear_0_1)"/>
</mask>
<g mask="url(#mask41_0_1)">
<path d="M15.7905 10.425C18.6781 10.425 21.0189 8.09121 21.0189 5.21245C21.0189 2.33368 18.6781 0 15.7905 0C12.903 0 10.5621 2.33368 10.5621 5.21245C10.5621 8.09121 12.903 10.425 15.7905 10.425Z" fill="url(#paint85_linear_0_1)"/>
</g>
<mask id="mask42_0_1" style="mask-type:alpha" maskUnits="userSpaceOnUse" x="40" y="0" width="12" height="11">
<path d="M46.0716 10.425C48.9592 10.425 51.3 8.09121 51.3 5.21245C51.3 2.33368 48.9592 0 46.0716 0C43.184 0 40.8432 2.33368 40.8432 5.21245C40.8432 8.09121 43.184 10.425 46.0716 10.425Z" fill="url(#paint86_linear_0_1)"/>
</mask>
<g mask="url(#mask42_0_1)">
<path d="M46.0716 10.425C48.9592 10.425 51.3 8.09121 51.3 5.21245C51.3 2.33368 48.9592 0 46.0716 0C43.184 0 40.8432 2.33368 40.8432 5.21245C40.8432 8.09121 43.184 10.425 46.0716 10.425Z" fill="url(#paint87_linear_0_1)"/>
</g>
<mask id="mask43_0_1" style="mask-type:alpha" maskUnits="userSpaceOnUse" x="71" y="0" width="11" height="11">
<path d="M76.3526 10.425C79.2402 10.425 81.581 8.09121 81.581 5.21245C81.581 2.33368 79.2402 0 76.3526 0C73.4651 0 71.1243 2.33368 71.1243 5.21245C71.1243 8.09121 73.4651 10.425 76.3526 10.425Z" fill="url(#paint88_linear_0_1)"/>
</mask>
<g mask="url(#mask43_0_1)">
<path d="M76.3526 10.425C79.2402 10.425 81.581 8.09121 81.581 5.21245C81.581 2.33368 79.2402 0 76.3526 0C73.4651 0 71.1243 2.33368 71.1243 5.21245C71.1243 8.09121 73.4651 10.425 76.3526 10.425Z" fill="url(#paint89_linear_0_1)"/>
</g>
<mask id="mask44_0_1" style="mask-type:alpha" maskUnits="userSpaceOnUse" x="10" y="26" width="12" height="11">
<path d="M15.7905 36.5958C18.6781 36.5958 21.0189 34.2621 21.0189 31.3834C21.0189 28.5046 18.6781 26.171 15.7905 26.171C12.903 26.171 10.5621 28.5046 10.5621 31.3834C10.5621 34.2621 12.903 36.5958 15.7905 36.5958Z" fill="url(#paint90_linear_0_1)"/>
</mask>
<g mask="url(#mask44_0_1)">
<path d="M15.7905 36.5958C18.6781 36.5958 21.0189 34.2621 21.0189 31.3834C21.0189 28.5046 18.6781 26.171 15.7905 26.171C12.903 26.171 10.5621 28.5046 10.5621 31.3834C10.5621 34.2621 12.903 36.5958 15.7905 36.5958Z" fill="url(#paint91_linear_0_1)"/>
</g>
<mask id="mask45_0_1" style="mask-type:alpha" maskUnits="userSpaceOnUse" x="40" y="26" width="12" height="11">
<path d="M46.0716 36.5958C48.9592 36.5958 51.3 34.2621 51.3 31.3834C51.3 28.5046 48.9592 26.171 46.0716 26.171C43.184 26.171 40.8432 28.5046 40.8432 31.3834C40.8432 34.2621 43.184 36.5958 46.0716 36.5958Z" fill="url(#paint92_linear_0_1)"/>
</mask>
<g mask="url(#mask45_0_1)">
<path d="M46.0716 36.5958C48.9592 36.5958 51.3 34.2621 51.3 31.3834C51.3 28.5046 48.9592 26.171 46.0716 26.171C43.184 26.171 40.8432 28.5046 40.8432 31.3834C40.8432 34.2621 43.184 36.5958 46.0716 36.5958Z" fill="url(#paint93_linear_0_1)"/>
</g>
<mask id="mask46_0_1" style="mask-type:alpha" maskUnits="userSpaceOnUse" x="71" y="26" width="11" height="11">
<path d="M76.3526 36.5958C79.2402 36.5958 81.581 34.2621 81.581 31.3834C81.581 28.5046 79.2402 26.171 76.3526 26.171C73.4651 26.171 71.1243 28.5046 71.1243 31.3834C71.1243 34.2621 73.4651 36.5958 76.3526 36.5958Z" fill="url(#paint94_linear_0_1)"/>
</mask>
<g mask="url(#mask46_0_1)">
<path d="M76.3526 36.5958C79.2402 36.5958 81.581 34.2621 81.581 31.3834C81.581 28.5046 79.2402 26.171 76.3526 26.171C73.4651 26.171 71.1243 28.5046 71.1243 31.3834C71.1243 34.2621 73.4651 36.5958 76.3526 36.5958Z" fill="url(#paint95_linear_0_1)"/>
</g>
<mask id="mask47_0_1" style="mask-type:alpha" maskUnits="userSpaceOnUse" x="10" y="52" width="12" height="11">
<path d="M15.7905 62.7125C18.6781 62.7125 21.0189 60.3788 21.0189 57.5C21.0189 54.6212 18.6781 52.2875 15.7905 52.2875C12.903 52.2875 10.5621 54.6212 10.5621 57.5C10.5621 60.3788 12.903 62.7125 15.7905 62.7125Z" fill="url(#paint96_linear_0_1)"/>
</mask>
<g mask="url(#mask47_0_1)">
<path d="M15.7905 62.7125C18.6781 62.7125 21.0189 60.3788 21.0189 57.5C21.0189 54.6212 18.6781 52.2875 15.7905 52.2875C12.903 52.2875 10.5621 54.6212 10.5621 57.5C10.5621 60.3788 12.903 62.7125 15.7905 62.7125Z" fill="url(#paint97_linear_0_1)"/>
</g>
<mask id="mask48_0_1" style="mask-type:alpha" maskUnits="userSpaceOnUse" x="40" y="52" width="12" height="11">
<path d="M46.0716 62.7125C48.9592 62.7125 51.3 60.3788 51.3 57.5C51.3 54.6212 48.9592 52.2875 46.0716 52.2875C43.184 52.2875 40.8432 54.6212 40.8432 57.5C40.8432 60.3788 43.184 62.7125 46.0716 62.7125Z" fill="url(#paint98_linear_0_1)"/>
</mask>
<g mask="url(#mask48_0_1)">
<path d="M46.0716 62.7125C48.9592 62.7125 51.3 60.3788 51.3 57.5C51.3 54.6212 48.9592 52.2875 46.0716 52.2875C43.184 52.2875 40.8432 54.6212 40.8432 57.5C40.8432 60.3788 43.184 62.7125 46.0716 62.7125Z" fill="url(#paint99_linear_0_1)"/>
</g>
<mask id="mask49_0_1" style="mask-type:alpha" maskUnits="userSpaceOnUse" x="71" y="52" width="11" height="11">
<path d="M76.3526 62.7125C79.2402 62.7125 81.581 60.3788 81.581 57.5C81.581 54.6212 79.2402 52.2875 76.3526 52.2875C73.4651 52.2875 71.1243 54.6212 71.1243 57.5C71.1243 60.3788 73.4651 62.7125 76.3526 62.7125Z" fill="url(#paint100_linear_0_1)"/>
</mask>
<g mask="url(#mask49_0_1)">
<path d="M76.3526 62.7125C79.2402 62.7125 81.581 60.3788 81.581 57.5C81.581 54.6212 79.2402 52.2875 76.3526 52.2875C73.4651 52.2875 71.1243 54.6212 71.1243 57.5C71.1243 60.3788 73.4651 62.7125 76.3526 62.7125Z" fill="url(#paint101_linear_0_1)"/>
</g>
<mask id="mask50_0_1" style="mask-type:alpha" maskUnits="userSpaceOnUse" x="10" y="78" width="12" height="11">
<path d="M15.7905 88.8834C18.6781 88.8834 21.0189 86.5496 21.0189 83.6709C21.0189 80.7921 18.6781 78.4584 15.7905 78.4584C12.903 78.4584 10.5621 80.7921 10.5621 83.6709C10.5621 86.5496 12.903 88.8834 15.7905 88.8834Z" fill="url(#paint102_linear_0_1)"/>
</mask>
<g mask="url(#mask50_0_1)">
<path d="M15.7905 88.8834C18.6781 88.8834 21.0189 86.5496 21.0189 83.6709C21.0189 80.7921 18.6781 78.4584 15.7905 78.4584C12.903 78.4584 10.5621 80.7921 10.5621 83.6709C10.5621 86.5496 12.903 88.8834 15.7905 88.8834Z" fill="url(#paint103_linear_0_1)"/>
</g>
<mask id="mask51_0_1" style="mask-type:alpha" maskUnits="userSpaceOnUse" x="40" y="78" width="12" height="11">
<path d="M46.0716 88.8834C48.9592 88.8834 51.3 86.5496 51.3 83.6709C51.3 80.7921 48.9592 78.4584 46.0716 78.4584C43.184 78.4584 40.8432 80.7921 40.8432 83.6709C40.8432 86.5496 43.184 88.8834 46.0716 88.8834Z" fill="url(#paint104_linear_0_1)"/>
</mask>
<g mask="url(#mask51_0_1)">
<path d="M46.0716 88.8834C48.9592 88.8834 51.3 86.5496 51.3 83.6709C51.3 80.7921 48.9592 78.4584 46.0716 78.4584C43.184 78.4584 40.8432 80.7921 40.8432 83.6709C40.8432 86.5496 43.184 88.8834 46.0716 88.8834Z" fill="url(#paint105_linear_0_1)"/>
</g>
<mask id="mask52_0_1" style="mask-type:alpha" maskUnits="userSpaceOnUse" x="71" y="78" width="11" height="11">
<path d="M76.3526 88.8834C79.2402 88.8834 81.581 86.5496 81.581 83.6709C81.581 80.7921 79.2402 78.4584 76.3526 78.4584C73.4651 78.4584 71.1243 80.7921 71.1243 83.6709C71.1243 86.5496 73.4651 88.8834 76.3526 88.8834Z" fill="url(#paint106_linear_0_1)"/>
</mask>
<g mask="url(#mask52_0_1)">
<path d="M76.3526 88.8834C79.2402 88.8834 81.581 86.5496 81.581 83.6709C81.581 80.7921 79.2402 78.4584 76.3526 78.4584C73.4651 78.4584 71.1243 80.7921 71.1243 83.6709C71.1243 86.5496 73.4651 88.8834 76.3526 88.8834Z" fill="url(#paint107_linear_0_1)"/>
</g>
<mask id="mask53_0_1" style="mask-type:alpha" maskUnits="userSpaceOnUse" x="10" y="104" width="12" height="11">
<path d="M15.7905 115C18.6781 115 21.0189 112.666 21.0189 109.788C21.0189 106.909 18.6781 104.575 15.7905 104.575C12.903 104.575 10.5621 106.909 10.5621 109.788C10.5621 112.666 12.903 115 15.7905 115Z" fill="url(#paint108_linear_0_1)"/>
</mask>
<g mask="url(#mask53_0_1)">
<path d="M15.7905 115C18.6781 115 21.0189 112.666 21.0189 109.788C21.0189 106.909 18.6781 104.575 15.7905 104.575C12.903 104.575 10.5621 106.909 10.5621 109.788C10.5621 112.666 12.903 115 15.7905 115Z" fill="url(#paint109_linear_0_1)"/>
</g>
<mask id="mask54_0_1" style="mask-type:alpha" maskUnits="userSpaceOnUse" x="40" y="104" width="12" height="11">
<path d="M46.0716 115C48.9592 115 51.3 112.666 51.3 109.788C51.3 106.909 48.9592 104.575 46.0716 104.575C43.184 104.575 40.8432 106.909 40.8432 109.788C40.8432 112.666 43.184 115 46.0716 115Z" fill="url(#paint110_linear_0_1)"/>
</mask>
<g mask="url(#mask54_0_1)">
<path d="M46.0716 115C48.9592 115 51.3 112.666 51.3 109.788C51.3 106.909 48.9592 104.575 46.0716 104.575C43.184 104.575 40.8432 106.909 40.8432 109.788C40.8432 112.666 43.184 115 46.0716 115Z" fill="url(#paint111_linear_0_1)"/>
</g>
<mask id="mask55_0_1" style="mask-type:alpha" maskUnits="userSpaceOnUse" x="71" y="104" width="11" height="11">
<path d="M76.3526 115C79.2402 115 81.581 112.666 81.581 109.788C81.581 106.909 79.2402 104.575 76.3526 104.575C73.4651 104.575 71.1243 106.909 71.1243 109.788C71.1243 112.666 73.4651 115 76.3526 115Z" fill="url(#paint112_linear_0_1)"/>
</mask>
<g mask="url(#mask55_0_1)">
<path d="M76.3526 115C79.2402 115 81.581 112.666 81.581 109.788C81.581 106.909 79.2402 104.575 76.3526 104.575C73.4651 104.575 71.1243 106.909 71.1243 109.788C71.1243 112.666 73.4651 115 76.3526 115Z" fill="url(#paint113_linear_0_1)"/>
</g>
</g>
<defs>
<linearGradient id="paint0_linear_0_1" x1="1432" y1="5337.13" x2="1360.59" y2="5155.33" gradientUnits="userSpaceOnUse">
<stop/>
<stop offset="1" stop-color="white"/>
</linearGradient>
<linearGradient id="paint1_linear_0_1" x1="1432" y1="5337.13" x2="1360.59" y2="5155.33" gradientUnits="userSpaceOnUse">
<stop stop-color="#97C3F9"/>
<stop offset="1" stop-color="#93C1F9"/>
</linearGradient>
<linearGradient id="paint2_linear_0_1" x1="1458.2" y1="5326.84" x2="1386.8" y2="5145.04" gradientUnits="userSpaceOnUse">
<stop/>
<stop offset="1" stop-color="white"/>
</linearGradient>
<linearGradient id="paint3_linear_0_1" x1="1458.2" y1="5326.84" x2="1386.8" y2="5145.04" gradientUnits="userSpaceOnUse">
<stop stop-color="#97C3F9"/>
<stop offset="1" stop-color="#93C1F9"/>
</linearGradient>
<linearGradient id="paint4_linear_0_1" x1="1484.4" y1="5316.55" x2="1413" y2="5134.75" gradientUnits="userSpaceOnUse">
<stop/>
<stop offset="1" stop-color="white"/>
</linearGradient>
<linearGradient id="paint5_linear_0_1" x1="1484.4" y1="5316.55" x2="1413" y2="5134.75" gradientUnits="userSpaceOnUse">
<stop stop-color="#97C3F9"/>
<stop offset="1" stop-color="#93C1F9"/>
</linearGradient>
<linearGradient id="paint6_linear_0_1" x1="1510.61" y1="5306.26" x2="1439.21" y2="5124.46" gradientUnits="userSpaceOnUse">
<stop/>
<stop offset="1" stop-color="white"/>
</linearGradient>
<linearGradient id="paint7_linear_0_1" x1="1510.61" y1="5306.26" x2="1439.21" y2="5124.46" gradientUnits="userSpaceOnUse">
<stop stop-color="#97C3F9"/>
<stop offset="1" stop-color="#93C1F9"/>
</linearGradient>
<linearGradient id="paint8_linear_0_1" x1="1536.81" y1="5295.97" x2="1465.41" y2="5114.16" gradientUnits="userSpaceOnUse">
<stop/>
<stop offset="1" stop-color="white"/>
</linearGradient>
<linearGradient id="paint9_linear_0_1" x1="1536.81" y1="5295.97" x2="1465.41" y2="5114.16" gradientUnits="userSpaceOnUse">
<stop stop-color="#97C3F9"/>
<stop offset="1" stop-color="#93C1F9"/>
</linearGradient>
<linearGradient id="paint10_linear_0_1" x1="1423.05" y1="5340.65" x2="1351.65" y2="5158.84" gradientUnits="userSpaceOnUse">
<stop/>
<stop offset="1" stop-color="white"/>
</linearGradient>
<linearGradient id="paint11_linear_0_1" x1="1423.05" y1="5340.65" x2="1351.65" y2="5158.84" gradientUnits="userSpaceOnUse">
<stop stop-color="#97C3F9"/>
<stop offset="1" stop-color="#93C1F9"/>
</linearGradient>
<linearGradient id="paint12_linear_0_1" x1="1449.26" y1="5330.35" x2="1377.86" y2="5148.55" gradientUnits="userSpaceOnUse">
<stop/>
<stop offset="1" stop-color="white"/>
</linearGradient>
<linearGradient id="paint13_linear_0_1" x1="1449.26" y1="5330.35" x2="1377.86" y2="5148.55" gradientUnits="userSpaceOnUse">
<stop stop-color="#97C3F9"/>
<stop offset="1" stop-color="#93C1F9"/>
</linearGradient>
<linearGradient id="paint14_linear_0_1" x1="1475.46" y1="5320.06" x2="1404.06" y2="5138.26" gradientUnits="userSpaceOnUse">
<stop/>
<stop offset="1" stop-color="white"/>
</linearGradient>
<linearGradient id="paint15_linear_0_1" x1="1475.46" y1="5320.06" x2="1404.06" y2="5138.26" gradientUnits="userSpaceOnUse">
<stop stop-color="#97C3F9"/>
<stop offset="1" stop-color="#93C1F9"/>
</linearGradient>
<linearGradient id="paint16_linear_0_1" x1="1501.67" y1="5309.77" x2="1430.27" y2="5127.97" gradientUnits="userSpaceOnUse">
<stop/>
<stop offset="1" stop-color="white"/>
</linearGradient>
<linearGradient id="paint17_linear_0_1" x1="1501.67" y1="5309.77" x2="1430.27" y2="5127.97" gradientUnits="userSpaceOnUse">
<stop stop-color="#97C3F9"/>
<stop offset="1" stop-color="#93C1F9"/>
</linearGradient>
<linearGradient id="paint18_linear_0_1" x1="1527.87" y1="5299.48" x2="1456.47" y2="5117.68" gradientUnits="userSpaceOnUse">
<stop/>
<stop offset="1" stop-color="white"/>
</linearGradient>
<linearGradient id="paint19_linear_0_1" x1="1527.87" y1="5299.48" x2="1456.47" y2="5117.68" gradientUnits="userSpaceOnUse">
<stop stop-color="#97C3F9"/>
<stop offset="1" stop-color="#93C1F9"/>
</linearGradient>
<linearGradient id="paint20_linear_0_1" x1="1414.11" y1="5344.16" x2="1342.71" y2="5162.35" gradientUnits="userSpaceOnUse">
<stop/>
<stop offset="1" stop-color="white"/>
</linearGradient>
<linearGradient id="paint21_linear_0_1" x1="1414.11" y1="5344.16" x2="1342.71" y2="5162.35" gradientUnits="userSpaceOnUse">
<stop stop-color="#97C3F9"/>
<stop offset="1" stop-color="#93C1F9"/>
</linearGradient>
<linearGradient id="paint22_linear_0_1" x1="1440.32" y1="5333.87" x2="1368.91" y2="5152.06" gradientUnits="userSpaceOnUse">
<stop/>
<stop offset="1" stop-color="white"/>
</linearGradient>
<linearGradient id="paint23_linear_0_1" x1="1440.32" y1="5333.87" x2="1368.91" y2="5152.06" gradientUnits="userSpaceOnUse">
<stop stop-color="#97C3F9"/>
<stop offset="1" stop-color="#93C1F9"/>
</linearGradient>
<linearGradient id="paint24_linear_0_1" x1="1466.52" y1="5323.58" x2="1395.12" y2="5141.77" gradientUnits="userSpaceOnUse">
<stop/>
<stop offset="1" stop-color="white"/>
</linearGradient>
<linearGradient id="paint25_linear_0_1" x1="1466.52" y1="5323.58" x2="1395.12" y2="5141.77" gradientUnits="userSpaceOnUse">
<stop stop-color="#97C3F9"/>
<stop offset="1" stop-color="#93C1F9"/>
</linearGradient>
<linearGradient id="paint26_linear_0_1" x1="1492.72" y1="5313.28" x2="1421.32" y2="5131.48" gradientUnits="userSpaceOnUse">
<stop/>
<stop offset="1" stop-color="white"/>
</linearGradient>
<linearGradient id="paint27_linear_0_1" x1="1492.72" y1="5313.28" x2="1421.32" y2="5131.48" gradientUnits="userSpaceOnUse">
<stop stop-color="#97C3F9"/>
<stop offset="1" stop-color="#93C1F9"/>
</linearGradient>
<linearGradient id="paint28_linear_0_1" x1="1518.93" y1="5302.99" x2="1447.53" y2="5121.19" gradientUnits="userSpaceOnUse">
<stop/>
<stop offset="1" stop-color="white"/>
</linearGradient>
<linearGradient id="paint29_linear_0_1" x1="1518.93" y1="5302.99" x2="1447.53" y2="5121.19" gradientUnits="userSpaceOnUse">
<stop stop-color="#97C3F9"/>
<stop offset="1" stop-color="#93C1F9"/>
</linearGradient>
<linearGradient id="paint30_linear_0_1" x1="1405.17" y1="5347.67" x2="1333.77" y2="5165.87" gradientUnits="userSpaceOnUse">
<stop/>
<stop offset="1" stop-color="white"/>
</linearGradient>
<linearGradient id="paint31_linear_0_1" x1="1405.17" y1="5347.67" x2="1333.77" y2="5165.87" gradientUnits="userSpaceOnUse">
<stop stop-color="#97C3F9"/>
<stop offset="1" stop-color="#93C1F9"/>
</linearGradient>
<linearGradient id="paint32_linear_0_1" x1="1431.37" y1="5337.38" x2="1359.97" y2="5155.57" gradientUnits="userSpaceOnUse">
<stop/>
<stop offset="1" stop-color="white"/>
</linearGradient>
<linearGradient id="paint33_linear_0_1" x1="1431.37" y1="5337.38" x2="1359.97" y2="5155.57" gradientUnits="userSpaceOnUse">
<stop stop-color="#97C3F9"/>
<stop offset="1" stop-color="#93C1F9"/>
</linearGradient>
<linearGradient id="paint34_linear_0_1" x1="1457.58" y1="5327.09" x2="1386.18" y2="5145.28" gradientUnits="userSpaceOnUse">
<stop/>
<stop offset="1" stop-color="white"/>
</linearGradient>
<linearGradient id="paint35_linear_0_1" x1="1457.58" y1="5327.09" x2="1386.18" y2="5145.28" gradientUnits="userSpaceOnUse">
<stop stop-color="#97C3F9"/>
<stop offset="1" stop-color="#93C1F9"/>
</linearGradient>
<linearGradient id="paint36_linear_0_1" x1="1483.78" y1="5316.8" x2="1412.38" y2="5134.99" gradientUnits="userSpaceOnUse">
<stop/>
<stop offset="1" stop-color="white"/>
</linearGradient>
<linearGradient id="paint37_linear_0_1" x1="1483.78" y1="5316.8" x2="1412.38" y2="5134.99" gradientUnits="userSpaceOnUse">
<stop stop-color="#97C3F9"/>
<stop offset="1" stop-color="#93C1F9"/>
</linearGradient>
<linearGradient id="paint38_linear_0_1" x1="1509.99" y1="5306.5" x2="1438.58" y2="5124.7" gradientUnits="userSpaceOnUse">
<stop/>
<stop offset="1" stop-color="white"/>
</linearGradient>
<linearGradient id="paint39_linear_0_1" x1="1509.99" y1="5306.5" x2="1438.58" y2="5124.7" gradientUnits="userSpaceOnUse">
<stop stop-color="#97C3F9"/>
<stop offset="1" stop-color="#93C1F9"/>
</linearGradient>
<linearGradient id="paint40_linear_0_1" x1="1396.23" y1="5351.18" x2="1324.82" y2="5169.38" gradientUnits="userSpaceOnUse">
<stop/>
<stop offset="1" stop-color="white"/>
</linearGradient>
<linearGradient id="paint41_linear_0_1" x1="1396.23" y1="5351.18" x2="1324.82" y2="5169.38" gradientUnits="userSpaceOnUse">
<stop stop-color="#97C3F9"/>
<stop offset="1" stop-color="#93C1F9"/>
</linearGradient>
<linearGradient id="paint42_linear_0_1" x1="1422.43" y1="5340.89" x2="1351.03" y2="5159.09" gradientUnits="userSpaceOnUse">
<stop/>
<stop offset="1" stop-color="white"/>
</linearGradient>
<linearGradient id="paint43_linear_0_1" x1="1422.43" y1="5340.89" x2="1351.03" y2="5159.09" gradientUnits="userSpaceOnUse">
<stop stop-color="#97C3F9"/>
<stop offset="1" stop-color="#93C1F9"/>
</linearGradient>
<linearGradient id="paint44_linear_0_1" x1="1448.64" y1="5330.6" x2="1377.23" y2="5148.8" gradientUnits="userSpaceOnUse">
<stop/>
<stop offset="1" stop-color="white"/>
</linearGradient>
<linearGradient id="paint45_linear_0_1" x1="1448.64" y1="5330.6" x2="1377.23" y2="5148.8" gradientUnits="userSpaceOnUse">
<stop stop-color="#97C3F9"/>
<stop offset="1" stop-color="#93C1F9"/>
</linearGradient>
<linearGradient id="paint46_linear_0_1" x1="1474.84" y1="5320.31" x2="1403.44" y2="5138.5" gradientUnits="userSpaceOnUse">
<stop/>
<stop offset="1" stop-color="white"/>
</linearGradient>
<linearGradient id="paint47_linear_0_1" x1="1474.84" y1="5320.31" x2="1403.44" y2="5138.5" gradientUnits="userSpaceOnUse">
<stop stop-color="#97C3F9"/>
<stop offset="1" stop-color="#93C1F9"/>
</linearGradient>
<linearGradient id="paint48_linear_0_1" x1="1501.04" y1="5310.02" x2="1429.64" y2="5128.21" gradientUnits="userSpaceOnUse">
<stop/>
<stop offset="1" stop-color="white"/>
</linearGradient>
<linearGradient id="paint49_linear_0_1" x1="1501.04" y1="5310.02" x2="1429.64" y2="5128.21" gradientUnits="userSpaceOnUse">
<stop stop-color="#97C3F9"/>
<stop offset="1" stop-color="#93C1F9"/>
</linearGradient>
<linearGradient id="paint50_linear_0_1" x1="66.2771" y1="5745.13" x2="-5.12449" y2="5563.33" gradientUnits="userSpaceOnUse">
<stop stop-color="white"/>
<stop offset="1" stop-color="white"/>
</linearGradient>
<linearGradient id="paint51_linear_0_1" x1="66.2771" y1="5745.13" x2="-5.12449" y2="5563.33" gradientUnits="userSpaceOnUse">
<stop stop-color="white"/>
<stop offset="1" stop-color="white"/>
</linearGradient>
<linearGradient id="paint52_linear_0_1" x1="96.5582" y1="5745.13" x2="25.1566" y2="5563.33" gradientUnits="userSpaceOnUse">
<stop stop-color="white"/>
<stop offset="1" stop-color="white"/>
</linearGradient>
<linearGradient id="paint53_linear_0_1" x1="96.5582" y1="5745.13" x2="25.1566" y2="5563.33" gradientUnits="userSpaceOnUse">
<stop stop-color="white"/>
<stop offset="1" stop-color="white"/>
</linearGradient>
<linearGradient id="paint54_linear_0_1" x1="126.839" y1="5745.13" x2="55.4376" y2="5563.33" gradientUnits="userSpaceOnUse">
<stop stop-color="white"/>
<stop offset="1" stop-color="white"/>
</linearGradient>
<linearGradient id="paint55_linear_0_1" x1="126.839" y1="5745.13" x2="55.4376" y2="5563.33" gradientUnits="userSpaceOnUse">
<stop stop-color="white"/>
<stop offset="1" stop-color="white"/>
</linearGradient>
<linearGradient id="paint56_linear_0_1" x1="157.12" y1="5745.13" x2="85.7187" y2="5563.33" gradientUnits="userSpaceOnUse">
<stop stop-color="white"/>
<stop offset="1" stop-color="white"/>
</linearGradient>
<linearGradient id="paint57_linear_0_1" x1="157.12" y1="5745.13" x2="85.7187" y2="5563.33" gradientUnits="userSpaceOnUse">
<stop stop-color="white"/>
<stop offset="1" stop-color="white"/>
</linearGradient>
<linearGradient id="paint58_linear_0_1" x1="66.2771" y1="5771.3" x2="-5.12327" y2="5589.5" gradientUnits="userSpaceOnUse">
<stop stop-color="white"/>
<stop offset="1" stop-color="white"/>
</linearGradient>
<linearGradient id="paint59_linear_0_1" x1="66.2771" y1="5771.3" x2="-5.12327" y2="5589.5" gradientUnits="userSpaceOnUse">
<stop stop-color="white"/>
<stop offset="1" stop-color="white"/>
</linearGradient>
<linearGradient id="paint60_linear_0_1" x1="96.5582" y1="5771.3" x2="25.1578" y2="5589.5" gradientUnits="userSpaceOnUse">
<stop stop-color="white"/>
<stop offset="1" stop-color="white"/>
</linearGradient>
<linearGradient id="paint61_linear_0_1" x1="96.5582" y1="5771.3" x2="25.1578" y2="5589.5" gradientUnits="userSpaceOnUse">
<stop stop-color="white"/>
<stop offset="1" stop-color="white"/>
</linearGradient>
<linearGradient id="paint62_linear_0_1" x1="126.839" y1="5771.3" x2="55.4389" y2="5589.5" gradientUnits="userSpaceOnUse">
<stop stop-color="white"/>
<stop offset="1" stop-color="white"/>
</linearGradient>
<linearGradient id="paint63_linear_0_1" x1="126.839" y1="5771.3" x2="55.4389" y2="5589.5" gradientUnits="userSpaceOnUse">
<stop stop-color="white"/>
<stop offset="1" stop-color="white"/>
</linearGradient>
<linearGradient id="paint64_linear_0_1" x1="157.12" y1="5771.3" x2="85.7199" y2="5589.5" gradientUnits="userSpaceOnUse">
<stop stop-color="white"/>
<stop offset="1" stop-color="white"/>
</linearGradient>
<linearGradient id="paint65_linear_0_1" x1="157.12" y1="5771.3" x2="85.7199" y2="5589.5" gradientUnits="userSpaceOnUse">
<stop stop-color="white"/>
<stop offset="1" stop-color="white"/>
</linearGradient>
<linearGradient id="paint66_linear_0_1" x1="66.2771" y1="5797.42" x2="-5.12449" y2="5615.62" gradientUnits="userSpaceOnUse">
<stop stop-color="white"/>
<stop offset="1" stop-color="white"/>
</linearGradient>
<linearGradient id="paint67_linear_0_1" x1="66.2771" y1="5797.42" x2="-5.12449" y2="5615.62" gradientUnits="userSpaceOnUse">
<stop stop-color="white"/>
<stop offset="1" stop-color="white"/>
</linearGradient>
<linearGradient id="paint68_linear_0_1" x1="96.5582" y1="5797.42" x2="25.1566" y2="5615.62" gradientUnits="userSpaceOnUse">
<stop stop-color="white"/>
<stop offset="1" stop-color="white"/>
</linearGradient>
<linearGradient id="paint69_linear_0_1" x1="96.5582" y1="5797.42" x2="25.1566" y2="5615.62" gradientUnits="userSpaceOnUse">
<stop stop-color="white"/>
<stop offset="1" stop-color="white"/>
</linearGradient>
<linearGradient id="paint70_linear_0_1" x1="126.839" y1="5797.42" x2="55.4376" y2="5615.62" gradientUnits="userSpaceOnUse">
<stop stop-color="white"/>
<stop offset="1" stop-color="white"/>
</linearGradient>
<linearGradient id="paint71_linear_0_1" x1="126.839" y1="5797.42" x2="55.4376" y2="5615.62" gradientUnits="userSpaceOnUse">
<stop stop-color="white"/>
<stop offset="1" stop-color="white"/>
</linearGradient>
<linearGradient id="paint72_linear_0_1" x1="157.12" y1="5797.42" x2="85.7187" y2="5615.62" gradientUnits="userSpaceOnUse">
<stop stop-color="white"/>
<stop offset="1" stop-color="white"/>
</linearGradient>
<linearGradient id="paint73_linear_0_1" x1="157.12" y1="5797.42" x2="85.7187" y2="5615.62" gradientUnits="userSpaceOnUse">
<stop stop-color="white"/>
<stop offset="1" stop-color="white"/>
</linearGradient>
<linearGradient id="paint74_linear_0_1" x1="66.2771" y1="5823.59" x2="-5.12449" y2="5641.79" gradientUnits="userSpaceOnUse">
<stop stop-color="white"/>
<stop offset="1" stop-color="white"/>
</linearGradient>
<linearGradient id="paint75_linear_0_1" x1="66.2771" y1="5823.59" x2="-5.12449" y2="5641.79" gradientUnits="userSpaceOnUse">
<stop stop-color="white"/>
<stop offset="1" stop-color="white"/>
</linearGradient>
<linearGradient id="paint76_linear_0_1" x1="96.5582" y1="5823.59" x2="25.1566" y2="5641.79" gradientUnits="userSpaceOnUse">
<stop stop-color="white"/>
<stop offset="1" stop-color="white"/>
</linearGradient>
<linearGradient id="paint77_linear_0_1" x1="96.5582" y1="5823.59" x2="25.1566" y2="5641.79" gradientUnits="userSpaceOnUse">
<stop stop-color="white"/>
<stop offset="1" stop-color="white"/>
</linearGradient>
<linearGradient id="paint78_linear_0_1" x1="126.839" y1="5823.59" x2="55.4376" y2="5641.79" gradientUnits="userSpaceOnUse">
<stop stop-color="white"/>
<stop offset="1" stop-color="white"/>
</linearGradient>
<linearGradient id="paint79_linear_0_1" x1="126.839" y1="5823.59" x2="55.4376" y2="5641.79" gradientUnits="userSpaceOnUse">
<stop stop-color="white"/>
<stop offset="1" stop-color="white"/>
</linearGradient>
<linearGradient id="paint80_linear_0_1" x1="157.12" y1="5823.59" x2="85.7187" y2="5641.79" gradientUnits="userSpaceOnUse">
<stop stop-color="white"/>
<stop offset="1" stop-color="white"/>
</linearGradient>
<linearGradient id="paint81_linear_0_1" x1="157.12" y1="5823.59" x2="85.7187" y2="5641.79" gradientUnits="userSpaceOnUse">
<stop stop-color="white"/>
<stop offset="1" stop-color="white"/>
</linearGradient>
<linearGradient id="paint82_linear_0_1" x1="1409.01" y1="5009.12" x2="1590.15" y2="4418.88" gradientUnits="userSpaceOnUse">
<stop stop-color="#F3F7FF"/>
<stop offset="1" stop-color="#DEEEFE"/>
</linearGradient>
<linearGradient id="paint83_linear_0_1" x1="429.823" y1="874.827" x2="195.583" y2="1580.64" gradientUnits="userSpaceOnUse">
<stop stop-color="#F3F7FF"/>
<stop offset="1" stop-color="#DEEEFE"/>
</linearGradient>
<linearGradient id="paint84_linear_0_1" x1="57.4049" y1="110.551" x2="-13.9967" y2="-71.2526" gradientUnits="userSpaceOnUse">
<stop/>
<stop offset="1" stop-color="white"/>
</linearGradient>
<linearGradient id="paint85_linear_0_1" x1="57.4049" y1="110.551" x2="-13.9967" y2="-71.2526" gradientUnits="userSpaceOnUse">
<stop stop-color="#97C3F9"/>
<stop offset="1" stop-color="#93C1F9"/>
</linearGradient>
<linearGradient id="paint86_linear_0_1" x1="83.6091" y1="100.259" x2="12.2075" y2="-81.5444" gradientUnits="userSpaceOnUse">
<stop/>
<stop offset="1" stop-color="white"/>
</linearGradient>
<linearGradient id="paint87_linear_0_1" x1="83.6091" y1="100.259" x2="12.2075" y2="-81.5444" gradientUnits="userSpaceOnUse">
<stop stop-color="#97C3F9"/>
<stop offset="1" stop-color="#93C1F9"/>
</linearGradient>
<linearGradient id="paint88_linear_0_1" x1="109.813" y1="89.9679" x2="38.4119" y2="-91.8359" gradientUnits="userSpaceOnUse">
<stop/>
<stop offset="1" stop-color="white"/>
</linearGradient>
<linearGradient id="paint89_linear_0_1" x1="109.813" y1="89.9679" x2="38.4119" y2="-91.8359" gradientUnits="userSpaceOnUse">
<stop stop-color="#97C3F9"/>
<stop offset="1" stop-color="#93C1F9"/>
</linearGradient>
<linearGradient id="paint90_linear_0_1" x1="48.4624" y1="114.062" x2="-22.9379" y2="-67.7403" gradientUnits="userSpaceOnUse">
<stop/>
<stop offset="1" stop-color="white"/>
</linearGradient>
<linearGradient id="paint91_linear_0_1" x1="48.4624" y1="114.062" x2="-22.9379" y2="-67.7403" gradientUnits="userSpaceOnUse">
<stop stop-color="#97C3F9"/>
<stop offset="1" stop-color="#93C1F9"/>
</linearGradient>
<linearGradient id="paint92_linear_0_1" x1="74.6667" y1="103.771" x2="3.26634" y2="-78.0318" gradientUnits="userSpaceOnUse">
<stop/>
<stop offset="1" stop-color="white"/>
</linearGradient>
<linearGradient id="paint93_linear_0_1" x1="74.6667" y1="103.771" x2="3.26634" y2="-78.0318" gradientUnits="userSpaceOnUse">
<stop stop-color="#97C3F9"/>
<stop offset="1" stop-color="#93C1F9"/>
</linearGradient>
<linearGradient id="paint94_linear_0_1" x1="100.871" y1="93.4794" x2="29.4707" y2="-88.3231" gradientUnits="userSpaceOnUse">
<stop/>
<stop offset="1" stop-color="white"/>
</linearGradient>
<linearGradient id="paint95_linear_0_1" x1="100.871" y1="93.4794" x2="29.4707" y2="-88.3231" gradientUnits="userSpaceOnUse">
<stop stop-color="#97C3F9"/>
<stop offset="1" stop-color="#93C1F9"/>
</linearGradient>
<linearGradient id="paint96_linear_0_1" x1="39.5201" y1="117.575" x2="-31.8815" y2="-64.2288" gradientUnits="userSpaceOnUse">
<stop/>
<stop offset="1" stop-color="white"/>
</linearGradient>
<linearGradient id="paint97_linear_0_1" x1="39.5201" y1="117.575" x2="-31.8815" y2="-64.2288" gradientUnits="userSpaceOnUse">
<stop stop-color="#97C3F9"/>
<stop offset="1" stop-color="#93C1F9"/>
</linearGradient>
<linearGradient id="paint98_linear_0_1" x1="65.7243" y1="107.283" x2="-5.67728" y2="-74.5205" gradientUnits="userSpaceOnUse">
<stop/>
<stop offset="1" stop-color="white"/>
</linearGradient>
<linearGradient id="paint99_linear_0_1" x1="65.7243" y1="107.283" x2="-5.67728" y2="-74.5205" gradientUnits="userSpaceOnUse">
<stop stop-color="#97C3F9"/>
<stop offset="1" stop-color="#93C1F9"/>
</linearGradient>
<linearGradient id="paint100_linear_0_1" x1="91.9287" y1="96.9919" x2="20.5271" y2="-84.812" gradientUnits="userSpaceOnUse">
<stop/>
<stop offset="1" stop-color="white"/>
</linearGradient>
<linearGradient id="paint101_linear_0_1" x1="91.9287" y1="96.9919" x2="20.5271" y2="-84.812" gradientUnits="userSpaceOnUse">
<stop stop-color="#97C3F9"/>
<stop offset="1" stop-color="#93C1F9"/>
</linearGradient>
<linearGradient id="paint102_linear_0_1" x1="30.5777" y1="121.087" x2="-40.8239" y2="-60.7168" gradientUnits="userSpaceOnUse">
<stop/>
<stop offset="1" stop-color="white"/>
</linearGradient>
<linearGradient id="paint103_linear_0_1" x1="30.5777" y1="121.087" x2="-40.8239" y2="-60.7168" gradientUnits="userSpaceOnUse">
<stop stop-color="#97C3F9"/>
<stop offset="1" stop-color="#93C1F9"/>
</linearGradient>
<linearGradient id="paint104_linear_0_1" x1="56.782" y1="110.795" x2="-14.6196" y2="-71.0084" gradientUnits="userSpaceOnUse">
<stop/>
<stop offset="1" stop-color="white"/>
</linearGradient>
<linearGradient id="paint105_linear_0_1" x1="56.782" y1="110.795" x2="-14.6196" y2="-71.0084" gradientUnits="userSpaceOnUse">
<stop stop-color="#97C3F9"/>
<stop offset="1" stop-color="#93C1F9"/>
</linearGradient>
<linearGradient id="paint106_linear_0_1" x1="82.9863" y1="100.504" x2="11.5847" y2="-81.3" gradientUnits="userSpaceOnUse">
<stop/>
<stop offset="1" stop-color="white"/>
</linearGradient>
<linearGradient id="paint107_linear_0_1" x1="82.9863" y1="100.504" x2="11.5847" y2="-81.3" gradientUnits="userSpaceOnUse">
<stop stop-color="#97C3F9"/>
<stop offset="1" stop-color="#93C1F9"/>
</linearGradient>
<linearGradient id="paint108_linear_0_1" x1="21.6353" y1="124.599" x2="-49.7663" y2="-57.2047" gradientUnits="userSpaceOnUse">
<stop/>
<stop offset="1" stop-color="white"/>
</linearGradient>
<linearGradient id="paint109_linear_0_1" x1="21.6353" y1="124.599" x2="-49.7663" y2="-57.2047" gradientUnits="userSpaceOnUse">
<stop stop-color="#97C3F9"/>
<stop offset="1" stop-color="#93C1F9"/>
</linearGradient>
<linearGradient id="paint110_linear_0_1" x1="47.8397" y1="114.307" x2="-23.562" y2="-67.4964" gradientUnits="userSpaceOnUse">
<stop/>
<stop offset="1" stop-color="white"/>
</linearGradient>
<linearGradient id="paint111_linear_0_1" x1="47.8397" y1="114.307" x2="-23.562" y2="-67.4964" gradientUnits="userSpaceOnUse">
<stop stop-color="#97C3F9"/>
<stop offset="1" stop-color="#93C1F9"/>
</linearGradient>
<linearGradient id="paint112_linear_0_1" x1="74.044" y1="104.016" x2="2.64237" y2="-77.7879" gradientUnits="userSpaceOnUse">
<stop/>
<stop offset="1" stop-color="white"/>
</linearGradient>
<linearGradient id="paint113_linear_0_1" x1="74.044" y1="104.016" x2="2.64237" y2="-77.7879" gradientUnits="userSpaceOnUse">
<stop stop-color="#97C3F9"/>
<stop offset="1" stop-color="#93C1F9"/>
</linearGradient>
<clipPath id="clip0_0_1">
<rect width="937.962" height="671.376" fill="white" transform="translate(-20.4224 805) rotate(21.4558)"/>
</clipPath>
</defs>
</svg>
